<svg
  width="16"
  height="16"
  viewBox="0 0 36 36"
  fill="none"
  xmlns="http://www.w3.org/2000/svg"
>
  <g clip-path="url(#clip0_636_8)">
    <path
      d="M16.5 12H10C7.23857 12 5 14.2386 5 17L5 25C5 27.7614 7.23858 30 10 30H26C28.7614 30 31 27.7614 31 25V21.5H34V25C34 29.4183 30.4183 33 26 33H10C5.58172 33 2 29.4183 2 25L2 17C2 12.5817 5.58172 9 10 9H16.5V12Z"
      fill="black"
    />
    <path
      d="M17.4853 25.0312L13.2426 20.7886L23.8492 10.182L21.1345 7.2529C20.5731 6.64707 20.9466 5.66029 21.7685 5.5781L32.6812 4.48683C33.314 4.42355 33.8443 4.95923 33.7747 5.59134L32.5626 16.5966C32.4707 17.4305 31.4547 17.7874 30.8615 17.1942L28.0919 14.4246L17.4853 25.0312Z"
      fill="black"
    />
  </g>
  <defs>
    <clipPath id="clip0_636_8">
      <rect width="36" height="36" fill="white" />
    </clipPath>
  </defs>
</svg>
